<?xml version="1.0" encoding="utf-8"?>
<!-- Generator: Adobe Illustrator 18.0.0, SVG Export Plug-In . SVG Version: 6.00 Build 0)  -->
<!DOCTYPE svg PUBLIC "-//W3C//DTD SVG 1.1//EN" "http://www.w3.org/Graphics/SVG/1.1/DTD/svg11.dtd">
<svg version="1.1" id="Layer_1" xmlns="http://www.w3.org/2000/svg" xmlns:xlink="http://www.w3.org/1999/xlink" x="0px" y="0px"
	 viewBox="0 0 245.3 136.2" enable-background="new 0 0 245.3 136.2" xml:space="preserve">
<path fill="#FFFFFF" d="M49.4,7.1c0,0.6,0.4,0.9,0.9,0.9h4.7c0,1,0.8,1.9,1.9,1.9h4.8l6.6,3.9c0.5,0.2,0.9,0.4,1.4,0.4H73l2.6,7.2
	c0.3,0.8,0.9,1.3,1.8,1.3h0.7l1.3,3.6c0.2,0.7-0.1,1-0.6,1.2l-2.2,0.8c-1.7,0.7-2.8,2.2-2.8,4.1c0,0.5,0.1,0.9,0.3,1.4l2.7,7.5
	c0.4,0.9,1.3,1.6,2.4,1.2l14.2-5.2c0.9-0.4,1.5-1.3,1.1-2.5l-7.1-19.3c-0.2-0.7,0.3-1.2,0.9-1.2h4.8c3.9,0,7.1-3.2,7.1-7.1
	c0-3.9-3.2-7.1-7.1-7.1H69.9c-0.6,0-1,0.2-1.5,0.4l-6.6,3.9H57c-1,0-1.9,0.8-1.9,1.9h-4.7C49.8,6.1,49.4,6.5,49.4,7.1z M82.5,33.1
	c0-0.8,0.7-1.4,1.4-1.4s1.4,0.7,1.4,1.4c0,0.8-0.7,1.4-1.4,1.4S82.5,33.9,82.5,33.1z M72.4,1.9h20.9c2.8,0,5.2,2.4,5.2,5.2
	c0,2.8-2.4,5.2-5.2,5.2h-4.8c-2.2,0-3.3,2.2-2.7,3.8L91,30.6l-4,1.4c-0.5-1.2-1.7-2.2-3.1-2.2c-1.8,0-3.3,1.5-3.3,3.3
	c0,0.4,0.1,0.8,0.2,1.1l-4,1.4L75.9,33c-0.5-1.3,0.2-2.5,1.4-3l2.2-0.8c1.1-0.5,1.9-1.5,1.9-2.7c0-0.3-0.1-0.7-0.2-0.9l-4.4-12.1
	c-0.2-0.8-0.9-1.2-1.7-1.2h-2.7L72.4,1.9L72.4,1.9z"/>
<path fill="#FFFFFF" d="M0.9,25.5C0.4,25.8,0,26.4,0,27.1c0,0.4,0.1,0.6,0.3,0.9l17.6,30.6c0.1,0.2,0.3,0.5,0.5,0.6l6.1,5.1
	c0.3,0.2,0.6,0.4,0.9,0.4c0.8,0,1.6-0.8,1.4-1.7l-1.4-7.9c0-0.2-0.2-0.5-0.3-0.6L7.5,23.8c-0.3-0.6-1-0.9-1.7-0.9
	c-0.4,0-0.6,0.1-0.9,0.3L0.9,25.5z M23.6,55.4l0.7,4l-1.7,0.9l-3.1-2.6L6,34.3l4-2.3L23.6,55.4z M8.2,28.7l0.9,1.6l-4,2.3l-0.9-1.6
	L8.2,28.7z"/>
<path fill="none" d="M25.9,77.2c0-0.6-0.5-1.1-1.1-1l-1.9,0.3v16.7c0,0.6-0.4,1-1,1s-1-0.4-1-1V76.9l-3,0.5V114
	c0.6,0.1,1.3,0.2,2,0.2c3.3,0,6-2.7,6-6V77.2z"/>
<path fill="none" d="M13.9,107.7c0-0.8-0.7-1.5-1.5-1.5c-0.8,0-1.5,0.7-1.5,1.5s0.7,1.5,1.5,1.5C13.2,109.2,13.9,108.5,13.9,107.7z"
	/>
<rect x="27.9" y="98.2" fill="none" width="2" height="8"/>
<path fill="none" d="M13.9,99.5V84.1c0-0.7-0.5-1.1-1.2-1l-3.9,0.7c-0.5,0.1-0.9,0.5-0.9,1v6.9c0,5.6,3.3,8.8,5,8.8
	C13.5,100.5,13.9,100.1,13.9,99.5z"/>
<path fill="#FFFFFF" d="M29.9,108.2c1.1,0,2-0.9,2-2v-3h10v-3c0-0.6,0.4-1,1-1h8.5c1.4,0,2.5,1.1,2.5,2.5s-1.1,2.5-2.5,2.5h-5.3
	c-0.6,0-1,0.4-1,1s0.4,1,1,1h5.3c2.5,0,4.5-2,4.5-4.5s-2-4.5-4.5-4.5h-8.5c-1.7,0-3,1.3-3,3v1h-8v-3c0-1.1-0.9-2-2-2h-2v-19
	c0-1.7-1.4-3.3-3.1-3L5.4,77.6c-1.9,0.3-3.5,2-3.5,4v11.6c0,4.8,1.1,9.3,3.1,13H3.4c-0.8,0-1.5,0.7-1.5,1.5s0.7,1.5,1.5,1.5H7
	c3.3,4.3,7.8,7,12.9,7c4.4,0,8-3.6,8-8H29.9z M29.9,98.2v8h-2v-8H29.9z M7.9,91.7v-6.9c0-0.5,0.4-0.9,0.9-1l3.9-0.7
	c0.7-0.1,1.2,0.3,1.2,1v15.4c0,0.6-0.4,1-1,1C11.2,100.5,7.9,97.3,7.9,91.7z M10.9,107.7c0-0.8,0.7-1.5,1.5-1.5
	c0.8,0,1.5,0.7,1.5,1.5s-0.7,1.5-1.5,1.5C11.6,109.2,10.9,108.5,10.9,107.7z M19.9,114.2c-0.7,0-1.4-0.1-2-0.2V77.4l3-0.5v16.3
	c0,0.6,0.4,1,1,1s1-0.4,1-1V76.5l1.9-0.3c0.6-0.1,1.1,0.4,1.1,1v31C25.9,111.5,23.2,114.2,19.9,114.2z"/>
<path fill="none" d="M38.7,41c0.5,0.5,1,0.9,1.8,0.9c0.9,0,1.7-0.6,2.1-1.2l2.6-4.6c-0.7-0.6-1-1.3-1.2-2.2h-5.2
	c-1.3,0-2.4,1-2.4,2.4c0,0.3,0,0.6,0.1,0.9C36.9,38.6,37.8,39.9,38.7,41z"/>
<path fill="none" d="M38.7,32H44c0.2-0.9,0.6-1.6,1.2-2.2l-2.6-4.6c-0.4-0.7-1.2-1.1-2.1-1.1c-0.8,0-1.3,0.4-1.8,0.9
	c-0.9,1.1-1.8,2.5-2.3,3.9c-0.1,0.3-0.1,0.5-0.1,0.8C36.3,31,37.4,32,38.7,32z"/>
<path fill="none" d="M46.8,28.9c0.4-0.1,0.9-0.2,1.3-0.2s0.9,0.1,1.2,0.2l2.6-4.6c0.2-0.4,0.4-0.7,0.4-1.1c0-1.1-0.9-2.2-2-2.4
	c-0.8-0.1-1.4-0.2-2.2-0.2c-0.8,0-1.5,0.1-2.3,0.2C44.7,21,44,22,44,23.2c0,0.5,0.1,0.8,0.3,1.1L46.8,28.9z"/>
<path fill="none" d="M52.3,32h5.1c1.3,0,2.4-1,2.4-2.4c0-0.3,0-0.5-0.1-0.8c-0.5-1.4-1.3-2.8-2.3-3.9c-0.5-0.5-1-0.9-1.8-0.9
	c-0.9,0-1.6,0.5-2,1.1L51,29.8C51.6,30.4,52.1,31.1,52.3,32z"/>
<path fill="none" d="M57.4,33.9h-5.2c-0.2,0.9-0.6,1.6-1.2,2.2l2.7,4.6c0.4,0.7,1.1,1.2,2,1.2c0.8,0,1.3-0.4,1.8-0.9
	c1-1.1,1.8-2.5,2.3-3.9c0.1-0.3,0.1-0.6,0.1-0.9C59.8,34.9,58.8,33.9,57.4,33.9z"/>
<path fill="none" d="M49.4,37c-0.4,0.1-0.8,0.2-1.2,0.2s-1-0.1-1.3-0.2l-2.6,4.6C44,42,44,42.3,44,42.7c0,1.1,0.8,2.2,1.9,2.4
	c0.8,0.1,1.5,0.2,2.3,0.2c0.8,0,1.4-0.1,2.2-0.2c1.1-0.2,2-1.2,2-2.4c0-0.5-0.2-0.8-0.4-1.1L49.4,37z"/>
<path fill="#FFFFFF" d="M66.4,115.8v-6c0-2.8,1.1-5.3,2.9-7.1c2.2-2.2,3.5-5.2,3.5-8.5c0-6.6-5.4-12-12-12h-3.9l1.8-14.1
	c1,0,1.8-0.7,1.9-1.6l0.3-2.9c0.1-1.3-0.7-2.2-1.8-2.2h-10v-2.6c0-1.8,1.1-3.4,2.8-4l1.3-0.5c0.8,1.1,2.1,1.9,3.6,1.9
	c0.5,0,1,0,1.5-0.2c3-1.1,5.6-3.3,7.3-6.1c0.1-0.2,0.2-0.5,0.2-0.8c0-0.7-0.4-1.1-1-1.3c-1.4-0.5-3-0.8-4.7-0.8
	c-1.7,0-3.3,0.3-4.8,0.9c-1.6,0.6-2.8,2.2-2.8,4c0,0.2,0.1,0.6,0.1,0.6l-1.4,0.5c-0.9,0.3-1.5,0.8-2.1,1.3v-7.2c0.6,0,1-0.1,1.6-0.2
	c1.8-0.3,3.1-1.7,3.4-3.5c0.5,0.2,1,0.3,1.5,0.3c1.3,0,2.6-0.6,3.3-1.5c1.1-1.3,2-2.8,2.6-4.5c0.2-0.5,0.2-1,0.2-1.5
	c0-1.3-0.6-2.6-1.5-3.3c1-0.8,1.5-2,1.5-3.3c0-0.5,0-1-0.2-1.4c-0.6-1.7-1.4-3.1-2.6-4.5c-0.8-1-2-1.5-3.3-1.5c-0.6,0-1,0.1-1.5,0.3
	c-0.3-1.8-1.6-3.3-3.4-3.6c-0.9-0.2-1.7-0.2-2.6-0.2c-0.9,0-1.8,0-2.7,0.2c-1.8,0.3-3.1,1.8-3.4,3.6c-0.5-0.2-1-0.3-1.5-0.3
	c-1.3,0-2.5,0.6-3.2,1.5c-1.1,1.3-2,2.8-2.6,4.5c-0.2,0.5-0.3,1-0.3,1.4c0,1.3,0.7,2.6,1.6,3.3c-0.9,0.8-1.6,2-1.6,3.3
	c0,0.5,0.1,1,0.3,1.5c0.6,1.7,1.4,3.1,2.6,4.5c0.8,1,1.9,1.5,3.2,1.5c0.6,0,1-0.1,1.5-0.3c0.3,1.8,1.6,3.2,3.4,3.5
	c0.6,0.1,1.1,0.2,1.7,0.2v14.3h-10c-1.1,0-2.1,1-1.9,2.2l0.4,2.9c0.1,1,1,1.6,1.9,1.6l1.9,14.5c0.1,1,0.9,1.6,1.9,1.6h13.5
	c0.2,0,0.3,0,0.5-0.1v0h5.4c5.5,0,10,4.5,10,10c0,2.8-1.1,5.3-2.9,7.1c-2.2,2.2-3.5,5.2-3.5,8.5v6c-3.9,0.5-7,3.8-7,7.9
	c0,6.9,3.6,12.5,8,12.5s8-5.6,8-12.5C73.4,119.6,70.3,116.3,66.4,115.8z M59.7,37.1c-0.5,1.4-1.3,2.8-2.3,3.9
	c-0.5,0.5-1,0.9-1.8,0.9c-0.9,0-1.6-0.6-2-1.2L51,36.1c0.7-0.6,1-1.3,1.2-2.2h5.2c1.3,0,2.4,1,2.4,2.4
	C59.8,36.6,59.8,36.8,59.7,37.1z M53.6,25.2c0.4-0.7,1.1-1.1,2-1.1c0.8,0,1.3,0.4,1.8,0.9c1,1.1,1.8,2.5,2.3,3.9
	c0.1,0.3,0.1,0.5,0.1,0.8c0,1.3-1,2.4-2.4,2.4h-5.1c-0.2-0.9-0.7-1.6-1.3-2.2L53.6,25.2z M45.9,20.8c0.8-0.1,1.5-0.2,2.3-0.2
	c0.8,0,1.4,0.1,2.2,0.2c1.1,0.2,2,1.2,2,2.4c0,0.5-0.2,0.8-0.4,1.1l-2.6,4.6c-0.4-0.1-0.8-0.2-1.2-0.2s-1,0.1-1.3,0.2l-2.6-4.6
	c-0.2-0.4-0.3-0.7-0.3-1.1C43.9,22,44.7,21,45.9,20.8z M36.4,28.9c0.5-1.4,1.3-2.8,2.3-3.9c0.5-0.5,1-0.9,1.8-0.9
	c0.9,0,1.7,0.5,2.1,1.1l2.6,4.6c-0.7,0.6-1,1.3-1.2,2.2h-5.2c-1.3,0-2.4-1-2.4-2.4C36.3,29.3,36.3,29.1,36.4,28.9z M42.6,40.6
	c-0.4,0.7-1.2,1.2-2.1,1.2c-0.8,0-1.3-0.4-1.8-0.9c-0.9-1.1-1.8-2.5-2.3-3.9c-0.1-0.3-0.1-0.6-0.1-0.9c0-1.3,1-2.4,2.4-2.4H44
	c0.2,0.9,0.6,1.6,1.2,2.2L42.6,40.6z M45.8,45.1c-1.1-0.2-1.9-1.2-1.9-2.4c0-0.5,0.1-0.8,0.3-1.1l2.6-4.6c0.4,0.1,0.9,0.2,1.3,0.2
	s0.9-0.1,1.2-0.2l2.6,4.6c0.2,0.4,0.4,0.7,0.4,1.1c0,1.1-0.9,2.2-2,2.4c-0.8,0.1-1.4,0.2-2.2,0.2C47.4,45.3,46.6,45.2,45.8,45.1z
	 M66.4,117.8c2.5,0.4,4.5,2.4,4.9,4.9h-4.9V117.8z M64.4,117.8v4.9h-4.9C59.9,120.2,61.9,118.2,64.4,117.8z M65.4,134.2
	c-3.1,0-5.7-4.2-6-9.5h12C71.1,130,68.5,134.2,65.4,134.2z"/>
<path fill="none" d="M91.3,61.8c0-0.6-0.4-0.9-0.9-0.9h-9.5c-0.6,0-0.9,0.4-0.9,0.9c0,0.6,0.4,0.9,0.9,0.9h9.5
	C90.9,62.7,91.3,62.4,91.3,61.8z"/>
<path fill="none" d="M80.9,58.5h9.5c0.6,0,0.9-0.4,0.9-0.9s-0.4-0.9-0.9-0.9h-9.5c-0.6,0-0.9,0.4-0.9,0.9S80.4,58.5,80.9,58.5z"/>
<path fill="none" d="M71,54.2c-0.6,0-0.9,0.4-0.9,0.9v4.7c0,0.6,0.4,0.9,0.9,0.9h2.6c-0.4-1-0.7-2.2-0.7-3.3c0-1.1,0.3-2.3,0.7-3.3
	L71,54.2L71,54.2z"/>
<path fill="none" d="M80.9,54.2h9.5c0.6,0,0.9-0.4,0.9-0.9c0-0.6-0.4-0.9-0.9-0.9h-9.5c-0.6,0-0.9,0.4-0.9,0.9
	C80,53.9,80.4,54.2,80.9,54.2z"/>
<path fill="none" d="M90.2,69.8c-0.8,0-1.4,0.7-1.4,1.4s0.7,1.4,1.4,1.4c0.8,0,1.4-0.7,1.4-1.4S90.9,69.8,90.2,69.8z"/>
<path fill="none" d="M111.6,48.7c-4.3,2.4-9.1,3.7-14.3,3.7v10.4c5.2,0,10,1.3,14.3,3.7V48.7z"/>
<path fill="none" d="M115.4,46.2c-0.6,0.5-1.2,0.9-1.9,1.3v20c0.7,0.4,1.3,0.9,1.9,1.3V46.2z"/>
<path fill="#FFFFFF" d="M94.5,66.5h0.9c1,0,1.9-0.9,1.9-1.9c7.9,0,15.1,3.3,20.2,8.7c0.2,0.2,0.4,0.3,0.7,0.3c0.6,0,0.9-0.4,0.9-0.9
	V42.4c0-0.6-0.4-0.9-0.9-0.9c-0.3,0-0.5,0.1-0.7,0.3c-5.1,5.4-12.3,8.7-20.2,8.7c0-1-0.8-1.9-1.9-1.9H81.9c-3,0-5.7,1.5-7.3,3.8H71
	c-1.6,0-2.8,1.2-2.8,2.8v4.7c0,1.6,1.2,2.8,2.8,2.8h3.6c1.3,1.9,3.3,3.3,5.8,3.7c0.8,0.1,1.3,0.7,1.5,1.3L85.9,83
	c0.2,0.6,0.8,1,1.4,1h10.6c0.9,0,1.6-0.8,1.3-1.8l-0.8-2.8c-0.2-0.6-0.7-1-1.3-1c-0.5,0-0.9-0.3-0.9-0.7l-2.6-9.9
	C93.4,67.1,93.9,66.5,94.5,66.5z M113.5,47.5c0.7-0.4,1.3-0.9,1.9-1.3v22.7c-0.6-0.5-1.2-0.9-1.9-1.3V47.5z M97.4,52.4
	c5.2,0,10-1.3,14.3-3.7v17.8c-4.3-2.4-9.1-3.7-14.3-3.7V52.4z M73.6,60.9H71c-0.6,0-0.9-0.4-0.9-0.9v-4.7c0-0.6,0.4-0.9,0.9-0.9h2.6
	c-0.4,1-0.7,2.2-0.7,3.3C72.9,58.7,73.2,59.8,73.6,60.9z M80.9,52.4h9.5c0.6,0,0.9,0.4,0.9,0.9c0,0.6-0.4,0.9-0.9,0.9h-9.5
	c-0.6,0-0.9-0.4-0.9-0.9C80,52.7,80.4,52.4,80.9,52.4z M80.9,56.6h9.5c0.6,0,0.9,0.4,0.9,0.9s-0.4,0.9-0.9,0.9h-9.5
	c-0.6,0-0.9-0.4-0.9-0.9S80.4,56.6,80.9,56.6z M80.9,62.7c-0.6,0-0.9-0.4-0.9-0.9c0-0.6,0.4-0.9,0.9-0.9h9.5c0.6,0,0.9,0.4,0.9,0.9
	c0,0.6-0.4,0.9-0.9,0.9H80.9z M90.2,72.7c-0.8,0-1.4-0.7-1.4-1.4s0.7-1.4,1.4-1.4c0.8,0,1.4,0.7,1.4,1.4S90.9,72.7,90.2,72.7z"/>
<polygon fill="none" points="100.7,108.9 94.8,114.7 96.1,115.8 101.8,110.2 "/>
<path fill="none" d="M89.6,99.3c-0.1-0.1-0.2-0.2-0.2-0.4c0-0.3,0.3-0.6,0.6-0.6c0.2,0,0.3,0.1,0.5,0.3l7.3,8h2.4L91.4,96
	c-0.1-0.1-0.2-0.2-0.4-0.2c-0.2,0-0.3,0.1-0.4,0.2l-8.7,8.6c-0.1,0.1-0.2,0.3-0.2,0.5c0,0.2,0.1,0.3,0.2,0.4l1.3,1.2h3.4l-2.2-2
	c-0.2-0.1-0.3-0.3-0.3-0.5c0-0.3,0.2-0.6,0.6-0.6c0.2,0,0.3,0,0.4,0.1l3.2,2.9h3.3l-4.7-4.7c-0.1-0.1-0.2-0.3-0.2-0.5
	c0-0.3,0.3-0.6,0.6-0.6c0.2,0,0.4,0.1,0.5,0.2l5.5,5.5h3L89.6,99.3z"/>
<path fill="#FFFFFF" d="M102.1,121.7c-0.5,0-0.9,0.4-0.9,0.9s0.4,0.9,0.9,0.9c0.5,0,0.9-0.4,0.9-0.9S102.6,121.7,102.1,121.7z"/>
<path fill="#FFFFFF" d="M102.1,129.3c0.5,0,0.9-0.4,0.9-0.9c0-0.5-0.4-0.9-0.9-0.9c-0.5,0-0.9,0.4-0.9,0.9
	C101.3,128.9,101.7,129.3,102.1,129.3z"/>
<path fill="#FFFFFF" d="M100.4,124.6c-0.5,0-0.9,0.4-0.9,0.9s0.4,0.9,0.9,0.9c0.5,0,0.9-0.4,0.9-0.9S100.9,124.6,100.4,124.6z"/>
<path fill="#FFFFFF" d="M103.9,120.5c0.5,0,0.9-0.4,0.9-0.9s-0.4-0.9-0.9-0.9c-0.5,0-0.9,0.4-0.9,0.9S103.4,120.5,103.9,120.5z"/>
<path fill="#FFFFFF" d="M103.9,126.4c0.5,0,0.9-0.4,0.9-0.9s-0.4-0.9-0.9-0.9c-0.5,0-0.9,0.4-0.9,0.9S103.4,126.4,103.9,126.4z"/>
<path fill="#FFFFFF" d="M105.6,129.3c0.5,0,0.9-0.4,0.9-0.9c0-0.5-0.4-0.9-0.9-0.9s-0.9,0.4-0.9,0.9
	C104.7,128.9,105.2,129.3,105.6,129.3z"/>
<path fill="#FFFFFF" d="M109.1,129.3c0.5,0,0.9-0.4,0.9-0.9c0-0.5-0.4-0.9-0.9-0.9c-0.5,0-0.9,0.4-0.9,0.9
	C108.2,128.9,108.6,129.3,109.1,129.3z"/>
<path fill="#FFFFFF" d="M107.4,126.4c0.5,0,0.9-0.4,0.9-0.9s-0.4-0.9-0.9-0.9c-0.5,0-0.9,0.4-0.9,0.9S106.9,126.4,107.4,126.4z"/>
<path fill="#FFFFFF" d="M105.6,121.7c-0.5,0-0.9,0.4-0.9,0.9s0.4,0.9,0.9,0.9s0.9-0.4,0.9-0.9S106.1,121.7,105.6,121.7z"/>
<path fill="#FFFFFF" d="M99.5,128.4c0-0.5-0.4-0.9-0.9-0.9c-0.5,0-0.9,0.4-0.9,0.9c0,0.5,0.4,0.9,0.9,0.9
	C99.1,129.3,99.5,128.9,99.5,128.4z"/>
<path fill="#FFFFFF" d="M101.8,117.6l1.7-1.7c0.7-0.7,1.1-1.6,1.1-2.7s-0.5-1.9-1-2.6l-2.2-2.6c0.2-0.2,0.2-0.5,0.2-0.9
	c0-0.4-0.2-0.9-0.4-1.2l-9-10.7c-0.3-0.4-0.8-0.6-1.3-0.6c-0.5,0-1,0.2-1.3,0.5l-0.4-0.4c-0.2-0.2-0.5-0.3-0.8-0.3
	c-0.3,0-0.6,0.1-0.8,0.3l-7,7c-0.2,0.2-0.3,0.5-0.3,0.8c0,0.3,0.1,0.6,0.3,0.8l0.4,0.4c-0.3,0.3-0.5,0.8-0.5,1.3
	c0,0.5,0.2,1,0.6,1.3l10.7,9c0.3,0.2,0.8,0.4,1.2,0.4c0.3,0,0.6-0.1,0.9-0.2l2.6,2.2c0.7,0.6,1.6,1,2.6,1
	C100.2,118.7,101.1,118.3,101.8,117.6z M93.4,106.6l-5.5-5.5c-0.1-0.1-0.3-0.2-0.5-0.2c-0.3,0-0.6,0.2-0.6,0.6
	c0,0.2,0.1,0.3,0.2,0.5l4.7,4.7h-3.3l-3.2-2.9c-0.1-0.1-0.2-0.1-0.4-0.1c-0.3,0-0.6,0.2-0.6,0.6c0,0.2,0.1,0.3,0.3,0.5l2.2,2h-3.4
	l-1.3-1.2c-0.1-0.1-0.2-0.2-0.2-0.4c0-0.2,0.1-0.3,0.2-0.5l8.7-8.6c0.1-0.1,0.2-0.2,0.4-0.2c0.2,0,0.3,0.1,0.4,0.2l8.9,10.6h-2.4
	l-7.3-8c-0.1-0.2-0.3-0.3-0.5-0.3c-0.3,0-0.6,0.2-0.6,0.6c0,0.2,0.1,0.3,0.2,0.4l6.7,7.3C96.3,106.6,93.4,106.6,93.4,106.6z
	 M96.1,115.8l-1.3-1.1l5.9-5.9l1.1,1.3L96.1,115.8z"/>
<g enable-background="new    ">
	<path fill="#FFFFFF" d="M127.7,73V42.7h7V73H127.7z"/>
</g>
<g enable-background="new    ">
	<path fill="#FFFFFF" d="M141.4,70c-2-2.2-3-5-3-8.4c0-3.4,1-6.2,3-8.4c2-2.2,4.5-3.3,7.4-3.3c2.9,0,5.1,1.1,6.7,3.2v-3h7V73h-7
		v-3.3c-1.7,2.4-4,3.6-6.8,3.6C145.8,73.3,143.4,72.2,141.4,70z M153.9,65.7c1-1,1.5-2.4,1.5-4.2c0-1.8-0.5-3.2-1.5-4.2
		c-1-1-2.2-1.5-3.5-1.5c-1.3,0-2.5,0.5-3.5,1.5c-1,1-1.5,2.4-1.5,4.2c0,1.8,0.5,3.2,1.5,4.2c1,1,2.2,1.5,3.5,1.5
		C151.8,67.2,152.9,66.7,153.9,65.7z"/>
</g>
<g enable-background="new    ">
	<path fill="#FFFFFF" d="M175.6,53.1c1.6-2.2,3.8-3.2,6.7-3.2s5.4,1.1,7.4,3.3c2,2.2,3,5,3,8.4c0,3.4-1,6.2-3,8.4
		c-2,2.2-4.5,3.3-7.3,3.3s-5.1-1.2-6.8-3.6V73h-7V42.7h7V53.1z M184.1,65.8c1-1,1.5-2.4,1.5-4.2c0-1.8-0.5-3.2-1.5-4.2
		c-1-1-2.2-1.5-3.5-1.5s-2.5,0.5-3.5,1.5c-1,1-1.5,2.4-1.5,4.2c0,1.8,0.5,3.2,1.5,4.2c1,1,2.2,1.5,3.5,1.5S183.1,66.7,184.1,65.8z"
		/>
</g>
<g enable-background="new    ">
	<path fill="#FFFFFF" d="M198.4,44.2h12.5c2.9,0,5.3,0.7,7,2.1c1.7,1.4,2.6,3.2,2.6,5.4c0,3.3-1.9,5.5-5.7,6.6
		c1.9,0.3,3.5,1.1,4.6,2.4c1.1,1.3,1.7,2.9,1.7,4.7c0,2.3-0.8,4.1-2.5,5.5c-1.7,1.4-4,2-7,2h-13.2V44.2z M205.4,49.6v6.2h4.6
		c1,0,1.8-0.3,2.4-0.8c0.6-0.5,0.9-1.3,0.9-2.3s-0.3-1.8-0.9-2.3c-0.6-0.5-1.4-0.8-2.4-0.8H205.4z M205.4,67.7h5.3
		c1,0,1.7-0.3,2.4-0.9c0.6-0.6,0.9-1.4,0.9-2.4c0-1-0.3-1.8-0.9-2.4c-0.6-0.6-1.4-0.9-2.3-0.9h-5.4V67.7z"/>
	<path fill="#FFFFFF" d="M245.3,44.2v5.3l-12.3,18.1h12.3V73H225v-5.3l12.3-18.1H225v-5.3H245.3z"/>
</g>
<g enable-background="new    ">
	<path fill="#FFFFFF" d="M128.9,105c-0.9-0.9-1.4-2-1.4-3.3c0-1.4,0.5-2.5,1.4-3.3c0.9-0.9,2-1.3,3.3-1.3c1,0,1.9,0.3,2.7,0.8
		c0.8,0.5,1.3,1.3,1.7,2.2H134c-0.3-0.7-0.9-1-1.7-1s-1.4,0.2-1.8,0.7s-0.7,1.1-0.7,1.9c0,0.8,0.2,1.4,0.7,1.9s1,0.7,1.8,0.7
		s1.3-0.3,1.7-1h2.7c-0.3,1-0.9,1.7-1.7,2.2c-0.8,0.5-1.7,0.8-2.7,0.8C131,106.3,129.8,105.9,128.9,105z"/>
	<path fill="#FFFFFF" d="M140.1,98.2c-0.3,0.3-0.6,0.4-0.9,0.4c-0.4,0-0.7-0.1-0.9-0.4c-0.3-0.3-0.4-0.6-0.4-0.9
		c0-0.4,0.1-0.7,0.4-0.9c0.3-0.3,0.6-0.4,0.9-0.4c0.4,0,0.7,0.1,0.9,0.4c0.3,0.3,0.4,0.6,0.4,0.9C140.5,97.6,140.3,97.9,140.1,98.2z
		 M138,106.3V99h2.2v7.3H138z"/>
	<path fill="#FFFFFF" d="M145.3,104.4h0.8v1.9H145c-0.8,0-1.4-0.2-1.9-0.5c-0.4-0.4-0.7-1-0.7-1.9v-3h-0.7V99h0.7v-1.8h2.2V99h1.5
		v1.8h-1.5v3C144.6,104.2,144.8,104.4,145.3,104.4z"/>
	<path fill="#FFFFFF" d="M150.7,104.4h0.8v1.9h-1.1c-0.8,0-1.4-0.2-1.9-0.5c-0.4-0.4-0.7-1-0.7-1.9v-3h-0.7V99h0.7v-1.8h2.2V99h1.5
		v1.8H150v3C150,104.2,150.2,104.4,150.7,104.4z"/>
	<path fill="#FFFFFF" d="M153.4,105.3c-0.6-0.7-1-1.6-1-2.7c0-1.1,0.3-2,1-2.7c0.6-0.7,1.4-1,2.3-1c0.9,0,1.6,0.3,2.1,1V99h2.2v7.3
		h-2.2v-1.1c-0.5,0.8-1.3,1.1-2.2,1.1S154.1,106,153.4,105.3z M157.4,104c0.3-0.3,0.5-0.8,0.5-1.3s-0.2-1-0.5-1.3
		c-0.3-0.3-0.7-0.5-1.1-0.5s-0.8,0.2-1.1,0.5c-0.3,0.3-0.5,0.8-0.5,1.3c0,0.6,0.2,1,0.5,1.3c0.3,0.3,0.7,0.5,1.1,0.5
		S157.1,104.3,157.4,104z"/>
</g>
<g enable-background="new    ">
	<path fill="#FFFFFF" d="M170.9,97.1h2.2v9.2h-2.2l-3.7-5.8v5.8h-2.2v-9.2h2.2l3.7,5.8V97.1z"/>
	<path fill="#FFFFFF" d="M175.6,105.3c-0.7-0.7-1.1-1.6-1.1-2.7c0-1.1,0.4-2,1.1-2.7c0.7-0.7,1.6-1,2.7-1c1.1,0,2,0.3,2.7,1
		c0.7,0.7,1.1,1.6,1.1,2.7c0,1.1-0.4,2-1.1,2.7s-1.6,1-2.7,1C177.3,106.4,176.4,106,175.6,105.3z M179.4,104
		c0.3-0.3,0.4-0.8,0.4-1.4c0-0.6-0.2-1-0.5-1.3c-0.3-0.3-0.7-0.5-1.1-0.5s-0.8,0.2-1.1,0.5s-0.4,0.8-0.4,1.3c0,0.6,0.2,1,0.5,1.4
		c0.3,0.3,0.7,0.5,1.1,0.5S179.1,104.3,179.4,104z"/>
	<path fill="#FFFFFF" d="M183,101.2c0-0.6,0.3-1.2,0.8-1.6s1.3-0.7,2.2-0.7s1.7,0.2,2.3,0.6c0.6,0.4,0.9,1,0.9,1.7H187
		c0-0.3-0.1-0.4-0.3-0.5c-0.1-0.1-0.4-0.1-0.7-0.1c-0.6,0-0.9,0.2-0.9,0.5c0,0.3,0.4,0.5,1.1,0.7c0.7,0.1,1.4,0.3,2,0.6
		c0.3,0.1,0.6,0.3,0.8,0.6c0.2,0.3,0.3,0.6,0.3,1c0,0.7-0.3,1.2-0.9,1.7c-0.6,0.4-1.3,0.6-2.2,0.6c-0.9,0-1.6-0.2-2.2-0.6
		c-0.6-0.4-0.9-1-1-1.8h2.3c0.1,0.4,0.4,0.7,0.9,0.7c0.3,0,0.5-0.1,0.6-0.2c0.2-0.1,0.3-0.3,0.3-0.5s-0.1-0.3-0.4-0.5
		c-0.3-0.1-0.6-0.2-1-0.3s-0.8-0.2-1.2-0.3s-0.7-0.3-1-0.6C183.2,102,183,101.7,183,101.2z"/>
	<path fill="#FFFFFF" d="M193.8,104.4h0.8v1.9h-1.1c-0.8,0-1.4-0.2-1.9-0.5c-0.4-0.4-0.7-1-0.7-1.9v-3h-0.7V99h0.7v-1.8h2.2V99h1.5
		v1.8h-1.5v3C193.2,104.2,193.4,104.4,193.8,104.4z"/>
	<path fill="#FFFFFF" d="M198.4,99v1.4c0.5-1,1.2-1.4,2.1-1.4v2.3h-0.5c-0.5,0-0.9,0.1-1.2,0.4c-0.3,0.2-0.4,0.7-0.4,1.3v3.4h-2.2
		V99H198.4z"/>
	<path fill="#FFFFFF" d="M202.1,105.3c-0.6-0.7-1-1.6-1-2.7c0-1.1,0.3-2,1-2.7c0.6-0.7,1.4-1,2.3-1c0.9,0,1.6,0.3,2.1,1V99h2.2v7.3
		h-2.2v-1.1c-0.5,0.8-1.3,1.1-2.2,1.1S202.7,106,202.1,105.3z M206.1,104c0.3-0.3,0.5-0.8,0.5-1.3s-0.2-1-0.5-1.3
		c-0.3-0.3-0.7-0.5-1.1-0.5s-0.8,0.2-1.1,0.5c-0.3,0.3-0.5,0.8-0.5,1.3c0,0.6,0.2,1,0.5,1.3c0.3,0.3,0.7,0.5,1.1,0.5
		S205.8,104.3,206.1,104z"/>
</g>
<g enable-background="new    ">
	<path fill="#FFFFFF" d="M128.1,118.2v-5.4h2.2v5.4c0,0.5,0.1,1,0.4,1.3s0.7,0.4,1.2,0.4c0.5,0,0.9-0.1,1.2-0.4s0.4-0.7,0.4-1.3
		v-5.4h2.2v5.4c0,0.8-0.2,1.5-0.6,2.1s-0.9,1-1.4,1.3c-0.6,0.3-1.2,0.4-1.9,0.4c-1.1,0-2-0.3-2.7-1
		C128.4,120.3,128.1,119.4,128.1,118.2z"/>
	<path fill="#FFFFFF" d="M139.8,114.6v1.1c0.5-0.8,1.2-1.1,2.2-1.1c0.8,0,1.5,0.3,2,0.8c0.5,0.6,0.8,1.3,0.8,2.3v4.2h-2.2v-3.9
		c0-0.5-0.1-0.8-0.4-1.1s-0.6-0.4-1-0.4c-0.4,0-0.8,0.1-1,0.4s-0.4,0.6-0.4,1.1v3.9h-2.2v-7.3H139.8z"/>
	<path fill="#FFFFFF" d="M146.2,116.8c0-0.6,0.3-1.2,0.8-1.6s1.3-0.7,2.2-0.7s1.7,0.2,2.3,0.6c0.6,0.4,0.9,1,0.9,1.7h-2.3
		c0-0.3-0.1-0.4-0.3-0.5c-0.1-0.1-0.4-0.1-0.7-0.1c-0.6,0-0.9,0.2-0.9,0.5c0,0.3,0.4,0.5,1.1,0.7c0.7,0.1,1.4,0.3,2,0.6
		c0.3,0.1,0.6,0.3,0.8,0.6c0.2,0.3,0.3,0.6,0.3,1c0,0.7-0.3,1.2-0.9,1.7c-0.6,0.4-1.3,0.6-2.2,0.6c-0.9,0-1.6-0.2-2.2-0.6
		c-0.6-0.4-0.9-1-1-1.8h2.3c0.1,0.4,0.4,0.7,0.9,0.7c0.3,0,0.5-0.1,0.6-0.2c0.2-0.1,0.3-0.3,0.3-0.5s-0.1-0.3-0.4-0.5
		c-0.3-0.1-0.6-0.2-1-0.3s-0.8-0.2-1.2-0.3s-0.7-0.3-1-0.6C146.4,117.6,146.2,117.3,146.2,116.8z"/>
	<path fill="#FFFFFF" d="M157,122c-1.1,0-1.9-0.3-2.6-1c-0.7-0.7-1-1.6-1-2.7c0-1.1,0.3-2,1-2.7c0.7-0.7,1.5-1,2.6-1
		c1.1,0,2,0.3,2.7,1c0.7,0.7,1.1,1.6,1.1,2.7c0,0.3,0,0.5-0.1,0.7h-5c0,0.3,0.2,0.6,0.4,0.8c0.2,0.2,0.5,0.3,0.8,0.3
		c0.3,0,0.5,0,0.6-0.1c0.1-0.1,0.2-0.1,0.3-0.2c0.1-0.1,0.1-0.1,0.3-0.3h2.4c-0.2,0.7-0.6,1.3-1.2,1.8S157.9,122,157,122z
		 M158,116.7c-0.3-0.2-0.6-0.3-0.9-0.3s-0.7,0.1-0.9,0.3c-0.2,0.2-0.4,0.5-0.5,0.8h2.7C158.4,117.2,158.2,117,158,116.7z"/>
	<path fill="#FFFFFF" d="M164.4,114.6v1.4c0.5-1,1.2-1.4,2.1-1.4v2.3h-0.5c-0.5,0-0.9,0.1-1.2,0.4c-0.3,0.2-0.4,0.7-0.4,1.3v3.4
		h-2.2v-7.3H164.4z"/>
	<path fill="#FFFFFF" d="M170.7,122c-1.1,0-1.9-0.3-2.6-1c-0.7-0.7-1-1.6-1-2.7c0-1.1,0.3-2,1-2.7c0.7-0.7,1.5-1,2.6-1
		c1.1,0,2,0.3,2.7,1c0.7,0.7,1.1,1.6,1.1,2.7c0,0.3,0,0.5-0.1,0.7h-5c0,0.3,0.2,0.6,0.4,0.8c0.2,0.2,0.5,0.3,0.8,0.3
		c0.3,0,0.5,0,0.6-0.1c0.1-0.1,0.2-0.1,0.3-0.2c0.1-0.1,0.1-0.1,0.3-0.3h2.4c-0.2,0.7-0.6,1.3-1.2,1.8S171.6,122,170.7,122z
		 M171.7,116.7c-0.3-0.2-0.6-0.3-0.9-0.3s-0.7,0.1-0.9,0.3c-0.2,0.2-0.4,0.5-0.5,0.8h2.7C172.1,117.2,171.9,117,171.7,116.7z"/>
</g>
<g enable-background="new    ">
	<path fill="#FFFFFF" d="M181.8,114.4c-0.3,0-0.5,0.1-0.7,0.2c-0.2,0.1-0.3,0.4-0.3,0.6s0.1,0.5,0.2,0.7c0.2,0.2,0.4,0.3,0.6,0.4
		c0.3,0.1,0.6,0.2,0.9,0.3c0.3,0.1,0.6,0.2,1,0.3c0.3,0.1,0.6,0.3,0.9,0.4c0.3,0.2,0.5,0.4,0.6,0.7c0.2,0.3,0.2,0.7,0.2,1.1
		c0,0.8-0.3,1.4-0.9,2c-0.6,0.6-1.5,0.8-2.5,0.8c-1,0-1.9-0.2-2.5-0.7c-0.6-0.5-0.9-1.2-0.9-2.1h2.4c0.1,0.7,0.4,1.1,1.1,1.1
		c0.3,0,0.6-0.1,0.8-0.3c0.2-0.2,0.3-0.4,0.3-0.6c0-0.3-0.1-0.5-0.2-0.6c-0.2-0.2-0.4-0.3-0.6-0.4c-0.3-0.1-0.6-0.2-0.9-0.3
		c-0.3-0.1-0.6-0.2-1-0.3c-0.3-0.1-0.6-0.3-0.9-0.4c-0.3-0.2-0.5-0.4-0.6-0.7c-0.2-0.3-0.2-0.7-0.2-1.1c0-0.8,0.3-1.5,0.9-2
		c0.6-0.5,1.4-0.8,2.4-0.8s1.8,0.2,2.4,0.7c0.6,0.4,0.9,1.2,0.9,2.1h-2.4c0-0.3-0.1-0.6-0.3-0.8S182.1,114.4,181.8,114.4z"/>
	<path fill="#FFFFFF" d="M190.2,120h0.8v1.9h-1.1c-0.8,0-1.4-0.2-1.9-0.5c-0.4-0.4-0.7-1-0.7-1.9v-3h-0.7v-1.8h0.7v-1.8h2.2v1.8h1.5
		v1.8h-1.5v3C189.5,119.8,189.8,120,190.2,120z"/>
	<path fill="#FFFFFF" d="M193,120.9c-0.6-0.7-1-1.6-1-2.7c0-1.1,0.3-2,1-2.7c0.6-0.7,1.4-1,2.3-1c0.9,0,1.6,0.3,2.1,1v-0.9h2.2v7.3
		h-2.2v-1.1c-0.5,0.8-1.3,1.1-2.2,1.1S193.6,121.6,193,120.9z M197,119.6c0.3-0.3,0.5-0.8,0.5-1.3s-0.2-1-0.5-1.3
		c-0.3-0.3-0.7-0.5-1.1-0.5s-0.8,0.2-1.1,0.5c-0.3,0.3-0.5,0.8-0.5,1.3c0,0.6,0.2,1,0.5,1.3c0.3,0.3,0.7,0.5,1.1,0.5
		S196.6,119.9,197,119.6z"/>
	<path fill="#FFFFFF" d="M202,120.9c-0.6-0.7-1-1.6-1-2.7c0-1.1,0.3-2,1-2.7c0.6-0.7,1.4-1,2.3-1c0.9,0,1.6,0.3,2.1,1v-3.3h2.2v9.6
		h-2.2v-1.1c-0.5,0.8-1.3,1.1-2.2,1.1S202.7,121.6,202,120.9z M206,119.6c0.3-0.3,0.5-0.8,0.5-1.3s-0.2-1-0.5-1.3
		c-0.3-0.3-0.7-0.5-1.1-0.5s-0.8,0.2-1.1,0.5c-0.3,0.3-0.5,0.8-0.5,1.3c0,0.6,0.2,1,0.5,1.3c0.3,0.3,0.7,0.5,1.1,0.5
		S205.7,119.9,206,119.6z"/>
	<path fill="#FFFFFF" d="M213.8,120h0.8v1.9h-1.1c-0.8,0-1.4-0.2-1.9-0.5c-0.4-0.4-0.7-1-0.7-1.9v-3h-0.7v-1.8h0.7v-1.8h2.2v1.8h1.5
		v1.8h-1.5v3C213.1,119.8,213.3,120,213.8,120z"/>
</g>
</svg>
